<?xml version="1.0" standalone="no"?>
<!DOCTYPE svg PUBLIC "-//W3C//DTD SVG 20010904//EN"
 "http://www.w3.org/TR/2001/REC-SVG-20010904/DTD/svg10.dtd">
<svg version="1.0" xmlns="http://www.w3.org/2000/svg"
 width="628.000000pt" height="586.000000pt" viewBox="0 0 628.000000 586.000000"
 preserveAspectRatio="xMidYMid meet">
<metadata>
Created by potrace 1.15, written by Peter Selinger 2001-2017
</metadata>
<g transform="translate(0.000000,586.000000) scale(0.100000,-0.100000)"
fill="#000000" stroke="none">
<path d="M805 5328 c-24 -14 -36 -27 -52 -56 -20 -34 -19 -2702 1 -2740 30
-59 68 -62 416 -32 1136 96 2877 96 4045 0 66 -6 176 -13 245 -16 l125 -7 28
28 27 28 0 1372 0 1373 -37 32 c-33 29 -40 32 -82 26 -89 -13 -457 -38 -806
-56 -110 -6 -279 -15 -375 -20 -525 -29 -1767 -29 -2290 0 -96 5 -265 14 -375
20 -328 16 -721 43 -810 55 -23 3 -49 0 -60 -7z m4635 -1423 c0 -662 -3 -1206
-7 -1208 -9 -4 -150 5 -348 23 -135 12 -287 20 -790 42 -402 17 -1786 17
-2200 0 -461 -20 -646 -29 -790 -42 -253 -22 -336 -25 -345 -16 -6 6 -10 455
-10 1209 l0 1199 122 -6 c68 -4 175 -11 238 -16 109 -9 257 -17 688 -40 491
-26 1626 -33 2107 -12 331 14 582 27 810 41 83 6 229 15 325 21 96 6 176 13
179 15 2 3 8 2 12 -1 5 -3 9 -547 9 -1209z"/>
<path d="M5095 4891 c-11 -5 -29 -19 -40 -31 -19 -21 -20 -36 -20 -335 l0
-313 30 -26 c44 -38 103 -36 144 5 l31 31 0 299 c0 329 -1 333 -61 365 -31 16
-54 17 -84 5z"/>
<path d="M1914 4427 c-3 -8 -4 -52 -2 -98 l3 -84 98 -3 97 -3 0 101 0 100 -95
0 c-71 0 -97 -4 -101 -13z"/>
<path d="M3491 4383 c-49 -51 -55 -61 -59 -109 -4 -48 -6 -52 -34 -58 l-29 -6
3 -92 3 -93 27 -3 28 -3 2 -257 3 -257 98 -3 97 -3 0 260 0 260 63 3 62 3 0
95 0 95 -63 3 c-84 4 -79 26 6 30 l62 3 0 94 0 95 -107 -1 -108 0 -54 -56z"/>
<path d="M3905 4413 c-33 -14 -66 -30 -73 -35 -9 -8 -12 -105 -10 -442 l3
-431 98 -3 97 -3 0 471 0 470 -27 -1 c-16 0 -55 -12 -88 -26z"/>
<path d="M4110 4340 l0 -101 98 3 97 3 0 95 0 95 -97 3 -98 3 0 -101z"/>
<path d="M1252 4378 c-18 -18 -16 -162 3 -178 10 -8 44 -11 107 -9 l93 4 3
-348 2 -348 98 3 97 3 5 345 5 345 105 5 105 5 3 78 c2 50 -1 84 -9 93 -16 19
-598 21 -617 2z"/>
<path d="M3082 4353 c-16 -21 -89 -126 -162 -233 -73 -107 -144 -209 -157
-226 -12 -17 -23 -36 -23 -43 0 -15 77 -132 98 -148 11 -9 54 -13 134 -13
l118 0 0 -95 0 -96 98 3 97 3 3 93 c3 89 3 92 27 92 52 0 55 6 55 100 0 94 -3
100 -56 100 l-24 0 0 238 c0 172 -3 241 -12 250 -7 7 -42 12 -89 12 l-77 0
-30 -37z"/>
<path d="M1921 4206 c-8 -9 -11 -112 -9 -357 l3 -344 98 -3 97 -3 0 355 c0
313 -2 355 -16 360 -32 12 -161 6 -173 -8z"/>
<path d="M2140 4203 c0 -10 43 -88 95 -173 52 -85 95 -162 95 -170 0 -15 -71
-136 -166 -282 -24 -37 -44 -70 -44 -73 0 -3 47 -5 105 -5 l105 0 61 105 c34
58 65 105 69 105 4 0 36 -47 71 -105 l64 -105 98 0 c75 0 98 3 94 13 -2 6 -48
84 -101 171 -53 88 -96 166 -96 174 0 8 43 85 95 171 52 87 95 165 95 174 0
15 -12 17 -89 17 -66 0 -93 -4 -105 -15 -8 -8 -38 -56 -67 -105 -28 -50 -54
-90 -58 -90 -3 0 -26 37 -51 82 -74 133 -66 128 -176 128 -83 0 -94 -2 -94
-17z"/>
<path d="M4123 4213 c-10 -4 -13 -85 -13 -359 l0 -355 98 3 97 3 3 344 c2 245
-1 348 -9 357 -11 14 -147 19 -176 7z"/>
<path d="M4334 4207 c-2 -7 40 -86 96 -176 55 -89 100 -166 100 -171 0 -4 -45
-81 -101 -170 -55 -90 -103 -169 -106 -176 -4 -11 15 -14 98 -14 l104 0 61
103 c33 56 64 102 69 102 5 0 37 -45 71 -100 l61 -100 96 -3 c64 -2 97 1 97 8
0 6 -45 85 -100 176 -55 91 -100 169 -100 173 0 5 45 82 100 171 56 90 99 169
96 177 -4 9 -29 13 -94 13 -103 0 -94 7 -168 -119 -28 -47 -55 -85 -60 -84 -5
1 -34 46 -64 100 l-56 98 -97 3 c-75 2 -99 0 -103 -11z"/>
<path d="M5095 4066 c-39 -17 -55 -37 -62 -79 -14 -91 72 -155 153 -112 78 40
70 157 -13 191 -39 17 -40 17 -78 0z"/>
<path d="M1223 3943 c-12 -2 -34 -18 -49 -36 -22 -26 -25 -38 -21 -75 8 -75
61 -110 134 -90 37 10 73 57 73 96 0 39 -29 83 -65 98 -19 8 -38 13 -42 13 -4
-1 -18 -4 -30 -6z"/>
<path d="M1220 3645 c-26 -8 -41 -22 -57 -55 -22 -42 -23 -54 -23 -300 0 -140
5 -271 10 -291 26 -92 136 -115 188 -39 22 32 22 39 22 322 0 329 -2 340 -75
365 -21 7 -40 7 -65 -2z"/>
<path d="M1937 2175 c-149 -51 -260 -158 -313 -301 -15 -39 -20 -88 -24 -249
l-5 -200 -220 -6 c-238 -7 -269 -12 -375 -62 -58 -28 -169 -139 -197 -197 -54
-111 -57 -130 -61 -395 -3 -237 -2 -252 18 -283 11 -18 32 -37 46 -42 15 -6
281 -10 686 -10 719 0 711 -1 737 56 7 16 11 105 11 259 0 253 -7 302 -56 402
-14 29 -23 57 -19 63 7 12 351 14 359 2 2 -4 -9 -37 -27 -72 -44 -94 -56 -176
-56 -410 -1 -224 7 -261 59 -287 20 -10 175 -12 708 -10 l684 2 24 30 c24 30
24 31 24 287 0 141 -4 267 -9 280 -5 13 -14 41 -21 63 -7 22 -22 53 -32 68
-38 53 -27 57 172 57 190 0 196 -2 167 -45 -8 -11 -24 -47 -38 -80 -23 -58
-24 -67 -24 -337 0 -275 0 -278 23 -300 l23 -23 693 0 694 0 26 24 26 24 0
267 c0 233 -2 274 -19 323 -42 128 -132 233 -247 288 -106 51 -156 59 -374 59
l-200 0 0 148 c0 83 -6 178 -14 219 -38 200 -175 347 -371 398 -81 21 -659 21
-740 0 -141 -36 -264 -134 -322 -255 -45 -94 -46 -97 -52 -310 l-6 -195 -101
-3 -102 -3 -4 203 c-3 137 -8 213 -17 233 -8 17 -18 41 -24 55 -42 95 -126
183 -223 234 -99 52 -137 56 -492 55 -316 0 -329 -1 -395 -24z"/>
</g>
</svg>
