<?xml version="1.0" standalone="no"?>
<!DOCTYPE svg PUBLIC "-//W3C//DTD SVG 20010904//EN"
 "http://www.w3.org/TR/2001/REC-SVG-20010904/DTD/svg10.dtd">
<svg version="1.0" xmlns="http://www.w3.org/2000/svg"
 width="300.000000pt" height="164.000000pt" viewBox="0 0 300.000000 164.000000"
 preserveAspectRatio="xMidYMid meet">
<metadata>
Created by potrace 1.15, written by Peter Selinger 2001-2017
</metadata>
<g transform="translate(0.000000,164.000000) scale(0.100000,-0.100000)"
fill="#000000" stroke="none">
<path d="M580 1531 l35 -6 0 -190 0 -190 -37 -6 c-44 -7 -82 -31 -105 -66 -17
-25 -18 -63 -18 -454 0 -417 1 -428 21 -456 48 -65 21 -63 742 -63 720 0 703
-1 742 62 13 21 20 51 20 81 0 45 1 48 22 41 65 -20 390 -118 429 -129 52 -14
101 -1 113 30 3 9 6 207 6 439 0 457 0 456 -54 470 -16 4 -61 -5 -118 -23 -51
-16 -154 -48 -229 -70 -75 -22 -144 -43 -153 -47 -13 -5 -16 1 -16 42 0 98
-56 144 -175 144 -55 0 -65 3 -65 18 1 22 27 132 33 139 3 2 12 -22 21 -54 9
-32 21 -67 26 -78 l9 -20 0 20 c0 11 -10 57 -23 102 l-24 81 24 94 c28 109 26
98 16 98 -5 0 -17 -35 -27 -77 l-19 -78 -19 65 c-25 87 -29 97 -33 85 -2 -5 7
-50 19 -100 l23 -90 -25 -102 -25 -103 -33 0 -33 0 -3 198 -2 197 -3 -199 -2
-199 -46 7 c-26 3 -60 6 -75 6 l-29 0 -3 193 -2 192 -3 -197 -2 -198 -85 0
-85 0 0 95 0 95 30 0 c17 0 30 5 30 10 0 6 -13 10 -30 10 l-30 0 0 80 0 80 44
0 c25 0 48 5 51 10 4 6 -15 10 -49 10 -30 0 -58 -4 -61 -10 -3 -5 -6 -93 -6
-195 l0 -185 -49 0 -50 0 0 44 c0 41 2 45 28 48 38 4 38 42 0 46 l-27 3 -3
127 c-2 103 -6 127 -18 129 -21 4 -200 -250 -200 -282 0 -25 1 -25 85 -25 l85
0 0 -45 0 -45 -151 0 c-138 0 -150 1 -145 18 2 9 10 43 17 75 7 32 15 60 19
62 4 3 15 -26 25 -63 10 -37 22 -71 26 -76 14 -15 11 1 -16 101 l-26 92 21 82
c12 45 19 89 18 98 -2 9 -12 -17 -22 -56 -10 -40 -21 -73 -25 -73 -5 0 -14 26
-21 58 -13 62 -29 99 -30 72 0 -8 9 -53 21 -100 l22 -86 -24 -99 c-25 -99 -25
-100 -57 -103 l-32 -3 0 196 c0 128 -3 194 -10 190 -6 -4 -10 -80 -10 -196 l0
-189 -55 0 -55 0 0 194 0 195 33 4 c17 2 -2 4 -43 4 -49 0 -63 -2 -40 -6z
m1900 -895 l0 -384 -67 20 c-38 12 -129 40 -203 64 -74 24 -143 44 -152 44 -9
0 -24 7 -32 16 -14 13 -16 50 -16 249 l0 234 128 39 c70 22 170 53 222 70 52
16 101 30 108 31 9 1 12 -82 12 -383z m-1480 75 c14 -10 33 -33 43 -53 25 -51
8 -122 -37 -149 -60 -37 -139 -17 -176 44 -69 113 61 233 170 158z m580 -11
c48 -45 52 -119 9 -174 -41 -52 -148 -43 -191 17 -32 45 -32 116 1 150 46 50
132 53 181 7z"/>
</g>
</svg>
